<svg id="visual" viewBox="0 0 900 600" width="900" height="600" xmlns="http://www.w3.org/2000/svg" xmlns:xlink="http://www.w3.org/1999/xlink" version="1.1"><path d="M0 279L21.5 289.8C43 300.7 86 322.3 128.8 319.2C171.7 316 214.3 288 257.2 277.8C300 267.7 343 275.3 385.8 283.5C428.7 291.7 471.3 300.3 514.2 305.7C557 311 600 313 642.8 318.3C685.7 323.7 728.3 332.3 771.2 334.5C814 336.7 857 332.3 878.5 330.2L900 328L900 0L878.5 0C857 0 814 0 771.2 0C728.3 0 685.7 0 642.8 0C600 0 557 0 514.2 0C471.3 0 428.7 0 385.8 0C343 0 300 0 257.2 0C214.3 0 171.7 0 128.8 0C86 0 43 0 21.5 0L0 0Z" fill="#fbb0f2"></path><path d="M0 257L21.5 261.2C43 265.3 86 273.7 128.8 272.2C171.7 270.7 214.3 259.3 257.2 245.5C300 231.7 343 215.3 385.8 221.3C428.7 227.3 471.3 255.7 514.2 265C557 274.3 600 264.7 642.8 261C685.7 257.3 728.3 259.7 771.2 263.5C814 267.3 857 272.7 878.5 275.3L900 278L900 0L878.5 0C857 0 814 0 771.2 0C728.3 0 685.7 0 642.8 0C600 0 557 0 514.2 0C471.3 0 428.7 0 385.8 0C343 0 300 0 257.2 0C214.3 0 171.7 0 128.8 0C86 0 43 0 21.5 0L0 0Z" fill="#e793ef"></path><path d="M0 225L21.5 213C43 201 86 177 128.8 162.5C171.7 148 214.3 143 257.2 143.3C300 143.7 343 149.3 385.8 147.7C428.7 146 471.3 137 514.2 139.5C557 142 600 156 642.8 161.3C685.7 166.7 728.3 163.3 771.2 164.8C814 166.3 857 172.7 878.5 175.8L900 179L900 0L878.5 0C857 0 814 0 771.2 0C728.3 0 685.7 0 642.8 0C600 0 557 0 514.2 0C471.3 0 428.7 0 385.8 0C343 0 300 0 257.2 0C214.3 0 171.7 0 128.8 0C86 0 43 0 21.5 0L0 0Z" fill="#cc79ef"></path><path d="M0 78L21.5 88C43 98 86 118 128.8 129.8C171.7 141.7 214.3 145.3 257.2 146.8C300 148.3 343 147.7 385.8 142.7C428.7 137.7 471.3 128.3 514.2 130.8C557 133.3 600 147.7 642.8 147.8C685.7 148 728.3 134 771.2 128.8C814 123.7 857 127.3 878.5 129.2L900 131L900 0L878.5 0C857 0 814 0 771.2 0C728.3 0 685.7 0 642.8 0C600 0 557 0 514.2 0C471.3 0 428.7 0 385.8 0C343 0 300 0 257.2 0C214.3 0 171.7 0 128.8 0C86 0 43 0 21.5 0L0 0Z" fill="#a862f2"></path><path d="M0 61L21.5 60.5C43 60 86 59 128.8 59.3C171.7 59.7 214.3 61.3 257.2 63.3C300 65.3 343 67.7 385.8 69C428.7 70.3 471.3 70.7 514.2 65.3C557 60 600 49 642.8 51.5C685.7 54 728.3 70 771.2 74.3C814 78.7 857 71.3 878.5 67.7L900 64L900 0L878.5 0C857 0 814 0 771.2 0C728.3 0 685.7 0 642.8 0C600 0 557 0 514.2 0C471.3 0 428.7 0 385.8 0C343 0 300 0 257.2 0C214.3 0 171.7 0 128.8 0C86 0 43 0 21.5 0L0 0Z" fill="#764ff6"></path></svg>