<svg id="visual" viewBox="0 0 900 600" width="900" height="600" xmlns="http://www.w3.org/2000/svg" xmlns:xlink="http://www.w3.org/1999/xlink" version="1.1"><path d="M0 315L30 290.5C60 266 120 217 180 189.5C240 162 300 156 360 184.8C420 213.7 480 277.3 540 293.8C600 310.3 660 279.7 720 263.8C780 248 840 247 870 246.5L900 246L900 0L870 0C840 0 780 0 720 0C660 0 600 0 540 0C480 0 420 0 360 0C300 0 240 0 180 0C120 0 60 0 30 0L0 0Z" fill="#fa7268"></path><path d="M0 114L30 142.2C60 170.3 120 226.7 180 251C240 275.3 300 267.7 360 244.8C420 222 480 184 540 177.8C600 171.7 660 197.3 720 214.2C780 231 840 239 870 243L900 247L900 0L870 0C840 0 780 0 720 0C660 0 600 0 540 0C480 0 420 0 360 0C300 0 240 0 180 0C120 0 60 0 30 0L0 0Z" fill="#f16367"></path><path d="M0 269L30 239.3C60 209.7 120 150.3 180 142.2C240 134 300 177 360 194.2C420 211.3 480 202.7 540 209.2C600 215.7 660 237.3 720 234C780 230.7 840 202.3 870 188.2L900 174L900 0L870 0C840 0 780 0 720 0C660 0 600 0 540 0C480 0 420 0 360 0C300 0 240 0 180 0C120 0 60 0 30 0L0 0Z" fill="#e85467"></path><path d="M0 137L30 142.8C60 148.7 120 160.3 180 173C240 185.7 300 199.3 360 202.7C420 206 480 199 540 194.2C600 189.3 660 186.7 720 174.3C780 162 840 140 870 129L900 118L900 0L870 0C840 0 780 0 720 0C660 0 600 0 540 0C480 0 420 0 360 0C300 0 240 0 180 0C120 0 60 0 30 0L0 0Z" fill="#de4467"></path><path d="M0 92L30 88.3C60 84.7 120 77.3 180 69.7C240 62 300 54 360 63.3C420 72.7 480 99.3 540 114.8C600 130.3 660 134.7 720 127.8C780 121 840 103 870 94L900 85L900 0L870 0C840 0 780 0 720 0C660 0 600 0 540 0C480 0 420 0 360 0C300 0 240 0 180 0C120 0 60 0 30 0L0 0Z" fill="#d23467"></path><path d="M0 49L30 55.5C60 62 120 75 180 74.5C240 74 300 60 360 50.7C420 41.3 480 36.7 540 42C600 47.3 660 62.7 720 73.8C780 85 840 92 870 95.5L900 99L900 0L870 0C840 0 780 0 720 0C660 0 600 0 540 0C480 0 420 0 360 0C300 0 240 0 180 0C120 0 60 0 30 0L0 0Z" fill="#c62368"></path></svg>