<svg id="visual" viewBox="0 0 1920 1080" width="1920" height="1080" xmlns="http://www.w3.org/2000/svg" xmlns:xlink="http://www.w3.org/1999/xlink" version="1.1"><path d="M0 532L45.7 547.5C91.3 563 182.7 594 274.2 582C365.7 570 457.3 515 548.8 495.8C640.3 476.7 731.7 493.3 823 482.8C914.3 472.3 1005.7 434.7 1097 434.2C1188.3 433.7 1279.7 470.3 1371.2 488.7C1462.7 507 1554.3 507 1645.8 503C1737.3 499 1828.7 491 1874.3 487L1920 483L1920 0L1874.3 0C1828.7 0 1737.3 0 1645.8 0C1554.3 0 1462.7 0 1371.2 0C1279.7 0 1188.3 0 1097 0C1005.7 0 914.3 0 823 0C731.7 0 640.3 0 548.8 0C457.3 0 365.7 0 274.2 0C182.7 0 91.3 0 45.7 0L0 0Z" fill="#e2dfff"></path><path d="M0 321L45.7 333C91.3 345 182.7 369 274.2 393C365.7 417 457.3 441 548.8 440.2C640.3 439.3 731.7 413.7 823 419.8C914.3 426 1005.7 464 1097 460.2C1188.3 456.3 1279.7 410.7 1371.2 377.7C1462.7 344.7 1554.3 324.3 1645.8 332.3C1737.3 340.3 1828.7 376.7 1874.3 394.8L1920 413L1920 0L1874.3 0C1828.7 0 1737.3 0 1645.8 0C1554.3 0 1462.7 0 1371.2 0C1279.7 0 1188.3 0 1097 0C1005.7 0 914.3 0 823 0C731.7 0 640.3 0 548.8 0C457.3 0 365.7 0 274.2 0C182.7 0 91.3 0 45.7 0L0 0Z" fill="#c6beff"></path><path d="M0 338L45.7 320.7C91.3 303.3 182.7 268.7 274.2 278.7C365.7 288.7 457.3 343.3 548.8 358.2C640.3 373 731.7 348 823 335C914.3 322 1005.7 321 1097 327.3C1188.3 333.7 1279.7 347.3 1371.2 336.2C1462.7 325 1554.3 289 1645.8 287.3C1737.3 285.7 1828.7 318.3 1874.3 334.7L1920 351L1920 0L1874.3 0C1828.7 0 1737.3 0 1645.8 0C1554.3 0 1462.7 0 1371.2 0C1279.7 0 1188.3 0 1097 0C1005.7 0 914.3 0 823 0C731.7 0 640.3 0 548.8 0C457.3 0 365.7 0 274.2 0C182.7 0 91.3 0 45.7 0L0 0Z" fill="#ac9dff"></path><path d="M0 200L45.7 193.8C91.3 187.7 182.7 175.3 274.2 169.8C365.7 164.3 457.3 165.7 548.8 186.5C640.3 207.3 731.7 247.7 823 262C914.3 276.3 1005.7 264.7 1097 244.7C1188.3 224.7 1279.7 196.3 1371.2 184.7C1462.7 173 1554.3 178 1645.8 179.2C1737.3 180.3 1828.7 177.7 1874.3 176.3L1920 175L1920 0L1874.3 0C1828.7 0 1737.3 0 1645.8 0C1554.3 0 1462.7 0 1371.2 0C1279.7 0 1188.3 0 1097 0C1005.7 0 914.3 0 823 0C731.7 0 640.3 0 548.8 0C457.3 0 365.7 0 274.2 0C182.7 0 91.3 0 45.7 0L0 0Z" fill="#937bfe"></path><path d="M0 64L45.7 69.5C91.3 75 182.7 86 274.2 104.5C365.7 123 457.3 149 548.8 145C640.3 141 731.7 107 823 108.2C914.3 109.3 1005.7 145.7 1097 144.2C1188.3 142.7 1279.7 103.3 1371.2 94.3C1462.7 85.3 1554.3 106.7 1645.8 115C1737.3 123.3 1828.7 118.7 1874.3 116.3L1920 114L1920 0L1874.3 0C1828.7 0 1737.3 0 1645.8 0C1554.3 0 1462.7 0 1371.2 0C1279.7 0 1188.3 0 1097 0C1005.7 0 914.3 0 823 0C731.7 0 640.3 0 548.8 0C457.3 0 365.7 0 274.2 0C182.7 0 91.3 0 45.7 0L0 0Z" fill="#7958fb"></path></svg>