<svg xmlns="http://www.w3.org/2000/svg" xmlns:xlink="http://www.w3.org/1999/xlink" id="visual" viewBox="0 0 960 540" width="960" height="540" version="1.1"><path d="M0 342L22.8 342.2C45.7 342.3 91.3 342.7 137 356.7C182.7 370.7 228.3 398.3 274 405.5C319.7 412.7 365.3 399.3 411.2 376.5C457 353.7 503 321.3 548.8 327.7C594.7 334 640.3 379 686 387.5C731.7 396 777.3 368 823 369.5C868.7 371 914.3 402 937.2 417.5L960 433L960 0L937.2 0C914.3 0 868.7 0 823 0C777.3 0 731.7 0 686 0C640.3 0 594.7 0 548.8 0C503 0 457 0 411.2 0C365.3 0 319.7 0 274 0C228.3 0 182.7 0 137 0C91.3 0 45.7 0 22.8 0L0 0Z" fill="#e2dfff"/><path d="M0 223L22.8 241C45.7 259 91.3 295 137 316C182.7 337 228.3 343 274 341.2C319.7 339.3 365.3 329.7 411.2 313.3C457 297 503 274 548.8 280.7C594.7 287.3 640.3 323.7 686 342.2C731.7 360.7 777.3 361.3 823 344.8C868.7 328.3 914.3 294.7 937.2 277.8L960 261L960 0L937.2 0C914.3 0 868.7 0 823 0C777.3 0 731.7 0 686 0C640.3 0 594.7 0 548.8 0C503 0 457 0 411.2 0C365.3 0 319.7 0 274 0C228.3 0 182.7 0 137 0C91.3 0 45.7 0 22.8 0L0 0Z" fill="#c6beff"/><path d="M0 171L22.8 182C45.7 193 91.3 215 137 231.2C182.7 247.3 228.3 257.7 274 250.5C319.7 243.3 365.3 218.7 411.2 222.5C457 226.3 503 258.7 548.8 259C594.7 259.3 640.3 227.7 686 210.2C731.7 192.7 777.3 189.3 823 204.2C868.7 219 914.3 252 937.2 268.5L960 285L960 0L937.2 0C914.3 0 868.7 0 823 0C777.3 0 731.7 0 686 0C640.3 0 594.7 0 548.8 0C503 0 457 0 411.2 0C365.3 0 319.7 0 274 0C228.3 0 182.7 0 137 0C91.3 0 45.7 0 22.8 0L0 0Z" fill="#ac9dff"/><path d="M0 180L22.8 179.5C45.7 179 91.3 178 137 170.3C182.7 162.7 228.3 148.3 274 143.3C319.7 138.3 365.3 142.7 411.2 150.3C457 158 503 169 548.8 177.5C594.7 186 640.3 192 686 192.2C731.7 192.3 777.3 186.7 823 177C868.7 167.3 914.3 153.7 937.2 146.8L960 140L960 0L937.2 0C914.3 0 868.7 0 823 0C777.3 0 731.7 0 686 0C640.3 0 594.7 0 548.8 0C503 0 457 0 411.2 0C365.3 0 319.7 0 274 0C228.3 0 182.7 0 137 0C91.3 0 45.7 0 22.8 0L0 0Z" fill="#937bfe"/><path d="M0 54L22.8 61C45.7 68 91.3 82 137 90.5C182.7 99 228.3 102 274 97C319.7 92 365.3 79 411.2 69C457 59 503 52 548.8 49.2C594.7 46.3 640.3 47.7 686 51.5C731.7 55.3 777.3 61.7 823 73C868.7 84.3 914.3 100.7 937.2 108.8L960 117L960 0L937.2 0C914.3 0 868.7 0 823 0C777.3 0 731.7 0 686 0C640.3 0 594.7 0 548.8 0C503 0 457 0 411.2 0C365.3 0 319.7 0 274 0C228.3 0 182.7 0 137 0C91.3 0 45.7 0 22.8 0L0 0Z" fill="#7958fb"/></svg>